<mxfile host="app.diagrams.net" modified="2024-01-30T02:38:48.983Z" agent="Mozilla/5.0 (Windows NT 10.0; Win64; x64) AppleWebKit/537.36 (KHTML, like Gecko) Chrome/121.0.0.0 Safari/537.36 Edg/121.0.0.0" etag="CRiLapxGwk562xR1q5-V" version="23.0.2" type="github">
  <diagram id="C5RBs43oDa-KdzZeNtuy" name="Page-1">
    <mxGraphModel dx="1383" dy="759" grid="1" gridSize="10" guides="1" tooltips="1" connect="1" arrows="1" fold="1" page="1" pageScale="1" pageWidth="827" pageHeight="1169" math="0" shadow="0">
      <root>
        <mxCell id="WIyWlLk6GJQsqaUBKTNV-0" />
        <mxCell id="WIyWlLk6GJQsqaUBKTNV-1" parent="WIyWlLk6GJQsqaUBKTNV-0" />
        <mxCell id="zkfFHV4jXpPFQw0GAbJ--26" value="" style="endArrow=open;shadow=0;strokeWidth=1;rounded=0;endFill=1;edgeStyle=elbowEdgeStyle;elbow=vertical;" parent="WIyWlLk6GJQsqaUBKTNV-1" edge="1">
          <mxGeometry x="0.5" y="41" relative="1" as="geometry">
            <mxPoint x="270" y="153" as="sourcePoint" />
            <mxPoint x="420" y="153" as="targetPoint" />
            <mxPoint x="-40" y="32" as="offset" />
          </mxGeometry>
        </mxCell>
        <mxCell id="zkfFHV4jXpPFQw0GAbJ--28" value="1" style="resizable=0;align=right;verticalAlign=bottom;labelBackgroundColor=none;fontSize=12;" parent="zkfFHV4jXpPFQw0GAbJ--26" connectable="0" vertex="1">
          <mxGeometry x="1" relative="1" as="geometry">
            <mxPoint x="-7" y="4" as="offset" />
          </mxGeometry>
        </mxCell>
        <mxCell id="zkfFHV4jXpPFQw0GAbJ--29" value="lives at" style="text;html=1;resizable=0;points=[];;align=center;verticalAlign=middle;labelBackgroundColor=none;rounded=0;shadow=0;strokeWidth=1;fontSize=12;" parent="zkfFHV4jXpPFQw0GAbJ--26" vertex="1" connectable="0">
          <mxGeometry x="0.5" y="49" relative="1" as="geometry">
            <mxPoint x="-38" y="40" as="offset" />
          </mxGeometry>
        </mxCell>
        <mxCell id="Xl5jIhtWlQXe7mWSOnUj-9" value="&lt;div style=&quot;text-align: left;&quot;&gt;&lt;span style=&quot;background-color: initial;&quot;&gt;&lt;br&gt;&lt;/span&gt;&lt;/div&gt;&lt;div style=&quot;text-align: left;&quot;&gt;&lt;span style=&quot;background-color: initial;&quot;&gt;&amp;nbsp; &amp;nbsp; &amp;nbsp; PK&lt;/span&gt;&lt;span style=&quot;background-color: initial; text-align: center;&quot;&gt;&amp;nbsp; &amp;nbsp; cpf varchar(14)&lt;/span&gt;&lt;br&gt;&lt;/div&gt;&lt;br style=&quot;font-size: 12px;&quot;&gt;&amp;nbsp; &amp;nbsp; &amp;nbsp; &amp;nbsp; &amp;nbsp; &amp;nbsp; &amp;nbsp; &amp;nbsp;nome_paciente varchar(40)&lt;br style=&quot;font-size: 12px;&quot;&gt;&lt;br style=&quot;font-size: 12px;&quot;&gt;&lt;div style=&quot;font-size: 12px;&quot;&gt;&amp;nbsp; &amp;nbsp; telefone varchar(14)&lt;/div&gt;&lt;br style=&quot;font-size: 12px;&quot;&gt;&lt;div style=&quot;font-size: 12px;&quot;&gt;&amp;nbsp;numero_plano int&lt;/div&gt;&lt;div style=&quot;font-size: 12px;&quot;&gt;&amp;nbsp;&amp;nbsp;&lt;/div&gt;&lt;div style=&quot;font-size: 12px;&quot;&gt;&amp;nbsp; &amp;nbsp; &amp;nbsp; &amp;nbsp; &amp;nbsp; &amp;nbsp; nome_plano varchar(20)&lt;/div&gt;&lt;div style=&quot;font-size: 12px;&quot;&gt;&lt;br style=&quot;font-size: 12px;&quot;&gt;&lt;/div&gt;&lt;div style=&quot;font-size: 12px;&quot;&gt;&amp;nbsp; &amp;nbsp; &amp;nbsp; &amp;nbsp; &amp;nbsp;tipo_plano varchar(10)&lt;/div&gt;" style="shape=internalStorage;whiteSpace=wrap;html=1;backgroundOutline=1;dx=30;dy=30;horizontal=1;verticalAlign=top;align=center;fontSize=12;spacingTop=-13;spacingLeft=-36;" vertex="1" parent="WIyWlLk6GJQsqaUBKTNV-1">
          <mxGeometry x="70" y="60" width="210" height="180" as="geometry" />
        </mxCell>
        <mxCell id="Xl5jIhtWlQXe7mWSOnUj-11" value="paciente" style="rounded=0;whiteSpace=wrap;html=1;" vertex="1" parent="WIyWlLk6GJQsqaUBKTNV-1">
          <mxGeometry x="70" y="30" width="210" height="30" as="geometry" />
        </mxCell>
        <mxCell id="Xl5jIhtWlQXe7mWSOnUj-22" style="edgeStyle=orthogonalEdgeStyle;rounded=0;orthogonalLoop=1;jettySize=auto;html=1;exitX=0.5;exitY=1;exitDx=0;exitDy=0;" edge="1" parent="WIyWlLk6GJQsqaUBKTNV-1" source="Xl5jIhtWlQXe7mWSOnUj-13">
          <mxGeometry relative="1" as="geometry">
            <mxPoint x="545" y="330" as="targetPoint" />
          </mxGeometry>
        </mxCell>
        <mxCell id="Xl5jIhtWlQXe7mWSOnUj-13" value="&lt;div style=&quot;text-align: left;&quot;&gt;&lt;span style=&quot;background-color: initial;&quot;&gt;&lt;br&gt;&lt;/span&gt;&lt;/div&gt;&lt;div style=&quot;text-align: left;&quot;&gt;&lt;span style=&quot;background-color: initial;&quot;&gt;&amp;nbsp; &amp;nbsp; &amp;nbsp; PK&lt;/span&gt;&lt;span style=&quot;background-color: initial; text-align: center;&quot;&gt;&amp;nbsp; &amp;nbsp; numero consulta autoincremento int&lt;/span&gt;&lt;br&gt;&lt;/div&gt;&lt;br style=&quot;font-size: 12px;&quot;&gt;&lt;div style=&quot;text-align: left;&quot;&gt;&lt;span style=&quot;background-color: initial;&quot;&gt;&amp;nbsp; &amp;nbsp; &amp;nbsp; &amp;nbsp; &amp;nbsp; &amp;nbsp; &amp;nbsp; &amp;nbsp;data_consulta date&lt;/span&gt;&lt;/div&gt;&lt;br style=&quot;font-size: 12px;&quot;&gt;&lt;div style=&quot;text-align: left; font-size: 12px;&quot;&gt;&amp;nbsp; &amp;nbsp; &amp;nbsp; &amp;nbsp; &amp;nbsp; &amp;nbsp; &amp;nbsp; &amp;nbsp;horario_consulta time&lt;/div&gt;&lt;br style=&quot;font-size: 12px;&quot;&gt;&lt;div style=&quot;text-align: left; font-size: 12px;&quot;&gt;&amp;nbsp; &amp;nbsp; &amp;nbsp; &amp;nbsp;FK&amp;nbsp; &amp;nbsp; fk_paciente_cpff varchar(14)&lt;/div&gt;&lt;div style=&quot;font-size: 12px;&quot;&gt;&amp;nbsp;&amp;nbsp;&lt;/div&gt;&lt;div style=&quot;text-align: left; font-size: 12px;&quot;&gt;&lt;span style=&quot;background-color: initial;&quot;&gt;&amp;nbsp; &amp;nbsp; &amp;nbsp; &amp;nbsp;FK&amp;nbsp; &amp;nbsp; fk_medico_crm int&lt;/span&gt;&lt;/div&gt;" style="shape=internalStorage;whiteSpace=wrap;html=1;backgroundOutline=1;dx=30;dy=30;horizontal=1;verticalAlign=top;align=center;fontSize=12;spacingTop=-13;spacingLeft=-36;" vertex="1" parent="WIyWlLk6GJQsqaUBKTNV-1">
          <mxGeometry x="420" y="60" width="250" height="150" as="geometry" />
        </mxCell>
        <mxCell id="Xl5jIhtWlQXe7mWSOnUj-14" value="consulta" style="rounded=0;whiteSpace=wrap;html=1;" vertex="1" parent="WIyWlLk6GJQsqaUBKTNV-1">
          <mxGeometry x="420" y="30" width="250" height="30" as="geometry" />
        </mxCell>
        <mxCell id="Xl5jIhtWlQXe7mWSOnUj-21" style="edgeStyle=orthogonalEdgeStyle;rounded=0;orthogonalLoop=1;jettySize=auto;html=1;entryX=1;entryY=0.5;entryDx=0;entryDy=0;" edge="1" parent="WIyWlLk6GJQsqaUBKTNV-1" source="Xl5jIhtWlQXe7mWSOnUj-15" target="Xl5jIhtWlQXe7mWSOnUj-13">
          <mxGeometry relative="1" as="geometry" />
        </mxCell>
        <mxCell id="Xl5jIhtWlQXe7mWSOnUj-15" value="&lt;div style=&quot;text-align: left;&quot;&gt;&lt;span style=&quot;background-color: initial;&quot;&gt;&lt;br&gt;&lt;/span&gt;&lt;/div&gt;&lt;div style=&quot;text-align: left;&quot;&gt;&lt;span style=&quot;background-color: initial;&quot;&gt;&amp;nbsp; &amp;nbsp; &amp;nbsp; PK&lt;/span&gt;&lt;span style=&quot;background-color: initial; text-align: center;&quot;&gt;&amp;nbsp; &amp;nbsp; numero consulta autoincremento int&lt;/span&gt;&lt;br&gt;&lt;/div&gt;&lt;br style=&quot;font-size: 12px;&quot;&gt;&lt;div style=&quot;text-align: left;&quot;&gt;&lt;span style=&quot;background-color: initial;&quot;&gt;&amp;nbsp; &amp;nbsp; &amp;nbsp; &amp;nbsp; &amp;nbsp; &amp;nbsp; &amp;nbsp; &amp;nbsp;nome_varchar(20)&lt;/span&gt;&lt;/div&gt;&lt;br style=&quot;font-size: 12px;&quot;&gt;&lt;div style=&quot;text-align: left; font-size: 12px;&quot;&gt;&amp;nbsp; &amp;nbsp; &amp;nbsp; &amp;nbsp; &amp;nbsp; &amp;nbsp; &amp;nbsp; &amp;nbsp;especialidade varchar(20)&lt;/div&gt;&lt;br style=&quot;font-size: 12px;&quot;&gt;&lt;div style=&quot;text-align: left; font-size: 12px;&quot;&gt;&amp;nbsp; &amp;nbsp; &amp;nbsp; &amp;nbsp; &amp;nbsp; &amp;nbsp;&lt;/div&gt;&lt;div style=&quot;font-size: 12px;&quot;&gt;&amp;nbsp;&amp;nbsp;&lt;/div&gt;&lt;div style=&quot;text-align: left; font-size: 12px;&quot;&gt;&lt;span style=&quot;background-color: initial;&quot;&gt;&amp;nbsp; &amp;nbsp; &amp;nbsp; &amp;nbsp; &amp;nbsp; &amp;nbsp;&lt;/span&gt;&lt;/div&gt;" style="shape=internalStorage;whiteSpace=wrap;html=1;backgroundOutline=1;dx=30;dy=30;horizontal=1;verticalAlign=top;align=center;fontSize=12;spacingTop=-13;spacingLeft=-36;" vertex="1" parent="WIyWlLk6GJQsqaUBKTNV-1">
          <mxGeometry x="790" y="90" width="250" height="90" as="geometry" />
        </mxCell>
        <mxCell id="Xl5jIhtWlQXe7mWSOnUj-20" value="consulta" style="rounded=0;whiteSpace=wrap;html=1;" vertex="1" parent="WIyWlLk6GJQsqaUBKTNV-1">
          <mxGeometry x="790" y="60" width="250" height="30" as="geometry" />
        </mxCell>
        <mxCell id="Xl5jIhtWlQXe7mWSOnUj-23" value="&lt;div style=&quot;text-align: left;&quot;&gt;&lt;span style=&quot;background-color: initial;&quot;&gt;&lt;br&gt;&lt;/span&gt;&lt;/div&gt;&lt;div style=&quot;text-align: left;&quot;&gt;&lt;span style=&quot;background-color: initial;&quot;&gt;&amp;nbsp; &amp;nbsp;PK&lt;/span&gt;&lt;span style=&quot;background-color: initial; text-align: center;&quot;&gt;&amp;nbsp; &amp;nbsp; numero pedido autoincremento int&lt;/span&gt;&lt;br&gt;&lt;/div&gt;&lt;br style=&quot;font-size: 12px;&quot;&gt;&lt;div style=&quot;text-align: left;&quot;&gt;&lt;span style=&quot;background-color: initial;&quot;&gt;&amp;nbsp; &amp;nbsp; &amp;nbsp; &amp;nbsp; &amp;nbsp; &amp;nbsp; resultado varchar(40)&lt;/span&gt;&lt;/div&gt;&lt;br style=&quot;font-size: 12px;&quot;&gt;&lt;div style=&quot;text-align: left; font-size: 12px;&quot;&gt;&amp;nbsp; &amp;nbsp; &amp;nbsp; &amp;nbsp; &amp;nbsp; &amp;nbsp; data_exame date&lt;/div&gt;&lt;div style=&quot;font-size: 12px;&quot;&gt;&lt;br&gt;&lt;/div&gt;&lt;div style=&quot;text-align: left;&quot;&gt;&amp;nbsp; &amp;nbsp; &amp;nbsp; &amp;nbsp; &amp;nbsp; &amp;nbsp; valor_pagar money&lt;/div&gt;&lt;div style=&quot;text-align: left;&quot;&gt;&lt;br&gt;&lt;/div&gt;&lt;div style=&quot;text-align: left; font-size: 12px;&quot;&gt;&amp;nbsp; &amp;nbsp;FK&amp;nbsp; &amp;nbsp; fk_consulta_numero_consulta int&lt;/div&gt;&lt;div style=&quot;font-size: 12px;&quot;&gt;&amp;nbsp;&amp;nbsp;&lt;/div&gt;&lt;div style=&quot;text-align: left; font-size: 12px;&quot;&gt;&lt;span style=&quot;background-color: initial;&quot;&gt;&amp;nbsp; &amp;nbsp;FK&amp;nbsp; &amp;nbsp; fk_exame_codigo int&lt;/span&gt;&lt;/div&gt;" style="shape=internalStorage;whiteSpace=wrap;html=1;backgroundOutline=1;dx=30;dy=30;horizontal=1;verticalAlign=top;align=center;fontSize=12;spacingTop=-13;spacingLeft=-36;" vertex="1" parent="WIyWlLk6GJQsqaUBKTNV-1">
          <mxGeometry x="420" y="360" width="250" height="180" as="geometry" />
        </mxCell>
        <mxCell id="Xl5jIhtWlQXe7mWSOnUj-24" value="pedido_exame" style="rounded=0;whiteSpace=wrap;html=1;" vertex="1" parent="WIyWlLk6GJQsqaUBKTNV-1">
          <mxGeometry x="420" y="330" width="250" height="30" as="geometry" />
        </mxCell>
        <mxCell id="Xl5jIhtWlQXe7mWSOnUj-27" value="&lt;div style=&quot;text-align: left;&quot;&gt;&lt;span style=&quot;background-color: initial;&quot;&gt;&lt;br&gt;&lt;/span&gt;&lt;/div&gt;&lt;div style=&quot;text-align: left;&quot;&gt;&lt;span style=&quot;background-color: initial;&quot;&gt;&amp;nbsp; &amp;nbsp; &amp;nbsp; &amp;nbsp;PK&lt;/span&gt;&lt;span style=&quot;background-color: initial; text-align: center;&quot;&gt;&amp;nbsp; &amp;nbsp;codigo int&lt;/span&gt;&lt;br&gt;&lt;/div&gt;&lt;br style=&quot;font-size: 12px;&quot;&gt;&lt;div style=&quot;text-align: left;&quot;&gt;&lt;span style=&quot;background-color: initial;&quot;&gt;&amp;nbsp; &amp;nbsp; &amp;nbsp; &amp;nbsp; &amp;nbsp; &amp;nbsp; &amp;nbsp; &amp;nbsp;especificação varchar(20)&lt;/span&gt;&lt;/div&gt;&lt;br style=&quot;font-size: 12px;&quot;&gt;&lt;div style=&quot;text-align: left; font-size: 12px;&quot;&gt;&amp;nbsp; &amp;nbsp; &amp;nbsp; &amp;nbsp; &amp;nbsp; &amp;nbsp; &amp;nbsp; &amp;nbsp;preço money&lt;/div&gt;&lt;br style=&quot;font-size: 12px;&quot;&gt;&lt;div style=&quot;text-align: left; font-size: 12px;&quot;&gt;&amp;nbsp; &amp;nbsp; &amp;nbsp; &amp;nbsp; &amp;nbsp; &amp;nbsp;&lt;/div&gt;&lt;div style=&quot;font-size: 12px;&quot;&gt;&amp;nbsp;&amp;nbsp;&lt;/div&gt;&lt;div style=&quot;text-align: left; font-size: 12px;&quot;&gt;&lt;span style=&quot;background-color: initial;&quot;&gt;&amp;nbsp; &amp;nbsp; &amp;nbsp; &amp;nbsp; &amp;nbsp; &amp;nbsp;&lt;/span&gt;&lt;/div&gt;" style="shape=internalStorage;whiteSpace=wrap;html=1;backgroundOutline=1;dx=30;dy=30;horizontal=1;verticalAlign=top;align=center;fontSize=12;spacingTop=-13;spacingLeft=-36;" vertex="1" parent="WIyWlLk6GJQsqaUBKTNV-1">
          <mxGeometry x="790" y="390" width="190" height="90" as="geometry" />
        </mxCell>
        <mxCell id="Xl5jIhtWlQXe7mWSOnUj-28" value="exame" style="rounded=0;whiteSpace=wrap;html=1;" vertex="1" parent="WIyWlLk6GJQsqaUBKTNV-1">
          <mxGeometry x="790" y="360" width="190" height="30" as="geometry" />
        </mxCell>
      </root>
    </mxGraphModel>
  </diagram>
</mxfile>
